<svg xmlns="http://www.w3.org/2000/svg" width="576" height="170.667" version="1.0" viewBox="0 0 432 128"><title>Fauxflix Logo</title><g fill="#db202c"><path d="M11 62.6v52.6l4.8-.6c2.6-.4 6.2-1 7.9-1.3l3.3-.5V69.2l7.8-.7c4.2-.3 8.8-.7 10.2-.8 2.4-.2 2.5-.5 2.8-7.6l.3-7.3-10.6.7-10.5.7V39.6c0-17.1-1.6-15.5 15.5-15.9l11-.2.3-6.8.3-6.7H11v52.6zM70.7 12.2c-.7 2.5-14.2 84.5-15.3 92.1l-.7 4.9 6.9-.7c3.8-.4 7.2-1 7.6-1.4.4-.4 1.4-4.5 2.1-9.1l1.3-8.5 4.4-.7c2.5-.3 6.8-.7 9.7-.7 5.8-.1 5.4-.8 7.1 11.4.8 5.6-.4 5.1 11.7 4.7 4.6-.2 5.5-.5 5.5-2 0-1.7-12.9-76.1-15.1-87l-1-5.2H83c-11.4 0-11.8.1-12.3 2.2zM86.4 53c3.2 20.5 3.2 20.5 1.2 21.2-3.3 1-12.6.9-12.6-.1 0-1.6 6-39.4 6.7-42.6.5-2.3.8-2.5 1-1 .2 1.1 1.9 11.2 3.7 22.5zM118 47.9c0 45.8.2 47 10.5 52.4 9 4.8 27.1 1.3 32.5-6.2 4.6-6.6 5-10 5-48.3V10h-16v37c0 35.7-.1 37.1-2 39-2.4 2.4-8.7 2.7-11.6.6-1.8-1.4-1.9-3.1-2.2-39l-.3-37.6H118v37.9zM176.1 15.2c10.2 25.8 14.2 36.4 14.2 37.3 0 .8-4.5 13-17.1 46.3-.3 1 1.3 1.2 7.3 1l7.8-.3 6.2-17.3c3.4-9.5 6.5-17.5 6.7-17.8.3-.2 3.1 6.9 6.3 15.8 3.1 9 6.1 17.1 6.6 18 .8 1.5 2.4 1.8 8.9 1.8 5.8 0 8-.4 8-1.3 0-.7-3.2-9.5-7.1-19.7-3.9-10.2-7.8-20.4-8.6-22.7l-1.5-4.3 8.1-20.3c4.5-11.2 8.1-20.7 8.1-21 0-.4-3.3-.7-7.4-.7h-7.5l-1.9 5.2c-5.7 14.9-9.3 24.1-9.9 25.1-.3.5-3.2-5.9-6.3-14.4l-5.7-15.4-8.6-.3-8.7-.3 2.1 5.3zM239 55v45h17V62h20.8l-.2-6.3-.1-6.2-10.2-.3-10.3-.3V23h26V10h-43v45zM289.2 55.7l.3 45.8 16.5 1.2c9.1.6 18.6 1.2 21.3 1.2l4.7.1V90.3l-4.6-.7c-2.6-.3-6.8-.6-9.3-.6-2.5 0-6.3-.3-8.3-.6l-3.8-.7V10h-17l.2 45.7zM339 57.4v47.5l4.3.5c7.6 1 11.6 1.1 11.7.3V10h-16v47.4zM366.4 16.2c1.3 3.5 5.1 14.1 8.5 23.5L381 57l-9 25.2c-4.9 13.8-8.8 25.3-8.7 25.4.1.1 3.6.5 7.7.9l7.5.7 6.5-19.6 6.5-19.7 2.1 6.3c1.1 3.5 4 13.1 6.5 21.5l4.4 15.1 7.3 1.1c4 .6 7.9 1.1 8.7 1.1 1.5 0 .8-2.8-10-36.6L404 58.3l6.9-19.9c3.8-10.9 7.6-21.8 8.5-24.2l1.5-4.2h-15.4l-6 17.4c-3.3 9.6-6.3 17.2-6.6 16.8-.4-.4-3-8.2-5.9-17.5L381.7 10h-17.6l2.3 6.2z"/></g></svg>