<svg xmlns="http://www.w3.org/2000/svg" xmlns:xlink="http://www.w3.org/1999/xlink" width="434.446" height="434.446" viewBox="0 0 407.293 407.293"><defs><radialGradient xlink:href="#a" id="c" cx="367.992" cy="280.366" r="368.717" fx="367.992" fy="280.366" gradientTransform="matrix(.30407 -.10528 3.8564 11.13776 -825.11 -2803.546)" gradientUnits="userSpaceOnUse"/><radialGradient xlink:href="#a" id="b" cx="367.992" cy="280.366" r="368.717" fx="367.992" fy="280.366" gradientTransform="matrix(.30407 -.10528 3.8564 11.13776 -825.11 -2803.546)" gradientUnits="userSpaceOnUse"/><linearGradient id="a"><stop offset="0"/><stop offset="1" stop-opacity="0"/></linearGradient></defs><g transform="translate(12.495 6.756)"><rect width="407.293" height="407.293" x="-12.495" y="-6.756" ry="37.456"/><g fill-rule="evenodd"><path fill="#b1060f" stroke="#000" stroke-width=".29074" d="m212.995 58.937-.107 61.055-.108 61.055-5.023-14.173-.01-.028-6.49 135.925c6.381 18.023 9.8 27.644 9.839 27.683.05.05 3.687.27 8.082.487 13.316.661 29.817 2.077 42.335 3.632 2.898.36 5.392.545 5.542.41.15-.134.232-62.3.182-138.145l-.091-137.901h-54.15zm-97.943-.182v138.04c0 75.923.075 138.116.166 138.207.09.091 4.792-.353 10.448-.986 5.656-.634 13.472-1.421 17.37-1.75 5.978-.505 23.826-1.653 25.893-1.665.601-.004.64-3.106.727-58.469l.092-58.464 4.318 12.219 1.527 4.318 6.49-135.892-2.23-6.302a51036.514 51036.514 0 0 0-9.999-28.257l-.359-1h-54.443z"/><path fill="url(#b)" d="M114.951-189.229V77.285L302.697 575.31c.02-11.413.042-17.58.063-30.625l.316-201.088 14.854 42.025c82.68 233.956 127.102 359.397 127.363 359.658.173.173 12.682.928 27.799 1.678 45.8 2.273 102.555 7.143 145.61 12.492 9.968 1.239 18.547 1.873 19.064 1.41.355-.318.586-105.158.648-253.058L451.547-29.443l-.09 50.84-.371 210-17.277-48.75c-16.882-47.635-28.154-79.49-95.977-271.25a175540.049 175540.049 0 0 0-34.39-97.188l-1.235-3.438H114.951z" transform="translate(81.631 113.771) scale(.29074)"/><path fill="#e50914" d="m115.054 58.755 54.694 154.984v-.07l4.318 12.218c24.04 68.02 36.954 104.49 37.03 104.567.05.05 3.687.27 8.082.487 13.316.661 29.817 2.077 42.335 3.632 2.883.359 5.365.543 5.538.412L212.78 181.02v.028l-5.024-14.173c-4.908-13.85-8.185-23.111-27.904-78.863a51036.514 51036.514 0 0 0-9.999-28.257l-.359-1h-54.441z"/><path fill="#b1060f" stroke="#000" stroke-width=".29074" d="m212.995 58.937-.107 61.055-.108 61.055-5.023-14.173-.01-.028-6.49 135.925c6.381 18.023 9.8 27.644 9.839 27.683.05.05 3.687.27 8.082.487 13.316.661 29.817 2.077 42.335 3.632 2.898.36 5.392.545 5.542.41.15-.134.232-62.3.182-138.145l-.091-137.901h-54.15zm-97.943-.182v138.04c0 75.923.075 138.116.166 138.207.09.091 4.792-.353 10.448-.986 5.656-.634 13.472-1.421 17.37-1.75 5.978-.505 23.826-1.653 25.893-1.665.601-.004.64-3.106.727-58.469l.092-58.464 4.318 12.219 1.527 4.318 6.49-135.892-2.23-6.302a51036.514 51036.514 0 0 0-9.999-28.257l-.359-1h-54.443z"/><path fill="url(#c)" d="M114.951-189.229V77.285L302.697 575.31c.02-11.413.042-17.58.063-30.625l.316-201.088 14.854 42.025c82.68 233.956 127.102 359.397 127.363 359.658.173.173 12.682.928 27.799 1.678 45.8 2.273 102.555 7.143 145.61 12.492 9.968 1.239 18.547 1.873 19.064 1.41.355-.318.586-105.158.648-253.058L451.547-29.443l-.09 50.84-.371 210-17.277-48.75c-16.882-47.635-28.154-79.49-95.977-271.25a175540.049 175540.049 0 0 0-34.39-97.188l-1.235-3.438H114.951z" transform="translate(81.631 113.771) scale(.29074)"/><path fill="#e50914" d="m115.054 58.755 54.694 154.984v-.07l4.318 12.218c24.04 68.02 36.954 104.49 37.03 104.567.05.05 3.687.27 8.082.487 13.316.661 29.817 2.077 42.335 3.632 2.883.359 5.365.543 5.538.412L212.78 181.02v.028l-5.024-14.173c-4.908-13.85-8.185-23.111-27.904-78.863a51036.514 51036.514 0 0 0-9.999-28.257l-.359-1h-54.441z"/></g></g></svg>